<?xml version="1.0" encoding="UTF-8"?>
<svg xmlns="http://www.w3.org/2000/svg" viewBox="0 0 512 512" role="img" aria-labelledby="title desc">
  <title id="title">IELTSGo Paper Airplane Icon</title>
  <desc id="desc">A dynamic red paper-airplane shaped mark with a white play triangle cutout, symbolizing forward motion and learning.</desc>
  <defs>
    <linearGradient id="gMain" x1="0%" y1="0%" x2="100%" y2="100%">
      <stop offset="0%" stop-color="#FF4D2E"/>
      <stop offset="55%" stop-color="#E52E2E"/>
      <stop offset="100%" stop-color="#C81E1E"/>
    </linearGradient>
    <linearGradient id="gShade" x1="0%" y1="0%" x2="100%" y2="100%">
      <stop offset="0%" stop-color="#B51616" stop-opacity="0.85"/>
      <stop offset="100%" stop-color="#7A0E0E" stop-opacity="0.0"/>
    </linearGradient>
    <filter id="softShadow" x="-20%" y="-20%" width="140%" height="140%">
      <feDropShadow dx="0" dy="6" stdDeviation="8" flood-color="#000000" flood-opacity="0.18"/>
    </filter>
  </defs>

  <path filter="url(#softShadow)"
        d="M38 280 L248 198 Q274 188 296 196 L468 158 Q486 154 492 164 Q498 174 486 186 L340 322 Q326 334 306 328 L254 314 L206 362 Q197 370 186 366 Q175 362 178 350 L204 272 L38 280 Z"
        fill="url(#gMain)"/>
  <path d="M296 196 L254 314 L340 322 Q326 334 306 328 L254 314 L206 362 Q197 370 186 366 Q175 362 178 350 L248 198 Q274 188 296 196 Z"
        fill="url(#gShade)"/>
  <polygon points="255,230 255,308 325,269" fill="#FFFFFF" opacity="0.98"/>
</svg>